<svg id="Layer_1" data-name="Layer 1" xmlns="http://www.w3.org/2000/svg" viewBox="0 0 330 330"><defs><style>.cls-1{fill:#fff;}.cls-2{fill:#6d6e71;}.cls-3{fill:#3cb98b;}.cls-4{fill:#27936b;}</style></defs><title>ladus</title><rect class="cls-1" width="330" height="330"/><path class="cls-2" d="M164.72,166.36h3.58V181.6h8.81v2.82H164.72Z" transform="translate(0 -0.5)"/><path class="cls-2" d="M194.05,166.36h4.75l7,18.06h-4l-1.79-4.9h-7.26l-1.72,4.9h-3.91Zm5,10.44-2.63-7.65h-.06l-2.63,7.65Z" transform="translate(0 -0.5)"/><path class="cls-2" d="M217.86,166.36h7.64a17.82,17.82,0,0,1,2.26.14,8.79,8.79,0,0,1,2,.49,5.94,5.94,0,0,1,1.69,1,5.48,5.48,0,0,1,1.3,1.62,8.69,8.69,0,0,1,.83,2.38,16.15,16.15,0,0,1,.29,3.27,18.57,18.57,0,0,1-.27,3.37,9.41,9.41,0,0,1-.78,2.46,5.49,5.49,0,0,1-1.24,1.67,5.59,5.59,0,0,1-1.66,1,8.3,8.3,0,0,1-2,.51,19.32,19.32,0,0,1-2.38.14h-7.64Zm6.67,15.24c.51,0,1,0,1.48,0a5.3,5.3,0,0,0,1.34-.22,3.63,3.63,0,0,0,1.13-.58,3.12,3.12,0,0,0,.88-1.09,6.57,6.57,0,0,0,.57-1.79,15,15,0,0,0,.2-2.67,13.56,13.56,0,0,0-.19-2.49,5.92,5.92,0,0,0-.55-1.69,3.08,3.08,0,0,0-.86-1,3.49,3.49,0,0,0-1.13-.56,6,6,0,0,0-1.35-.22c-.48,0-1,0-1.52,0h-3.09V181.6Z" transform="translate(0 -0.5)"/><path class="cls-2" d="M247.41,166.36H251v12.08a5.89,5.89,0,0,0,.23,1.77,2.18,2.18,0,0,0,.74,1.09,3.11,3.11,0,0,0,1.34.56,10.87,10.87,0,0,0,2,.16,9.77,9.77,0,0,0,1.87-.16,3.27,3.27,0,0,0,1.33-.56,2.35,2.35,0,0,0,.8-1.09,5.13,5.13,0,0,0,.26-1.77V166.36h3.55v12.25a8,8,0,0,1-.42,2.75,4.38,4.38,0,0,1-1.37,1.93,6.23,6.23,0,0,1-2.43,1.15,14.77,14.77,0,0,1-3.6.38,15.07,15.07,0,0,1-3.61-.37,6.28,6.28,0,0,1-2.44-1.13,4.36,4.36,0,0,1-1.38-1.92,7.8,7.8,0,0,1-.43-2.73Z" transform="translate(0 -0.5)"/><path class="cls-2" d="M276.7,181.73q.76.09,1.64.15t1.74.1c.65,0,1.34,0,2.07,0a13.19,13.19,0,0,0,2.3-.16,3.4,3.4,0,0,0,1.3-.47,1.38,1.38,0,0,0,.57-.77,3.91,3.91,0,0,0,.13-1.05,6.35,6.35,0,0,0-.05-.85,1.7,1.7,0,0,0-.25-.69,1.72,1.72,0,0,0-.55-.53,3.29,3.29,0,0,0-1-.36l-4.34-1a6.78,6.78,0,0,1-1.75-.61,3.43,3.43,0,0,1-1.16-1,3.88,3.88,0,0,1-.64-1.44,8.56,8.56,0,0,1-.2-2,5.27,5.27,0,0,1,.48-2.32,4.28,4.28,0,0,1,1.35-1.61,6,6,0,0,1,2.11-.94,11.57,11.57,0,0,1,2.76-.3,20.72,20.72,0,0,1,2.32.12q1.05.12,1.81.26c.6.11,1.14.23,1.63.37v2.34l-1.42-.14q-.64-.06-1.44-.11t-1.65,0q-1.33,0-2.18.08a3.89,3.89,0,0,0-1.34.32,1.36,1.36,0,0,0-.69.68,3,3,0,0,0-.19,1.18,4.43,4.43,0,0,0,.05.72,1.23,1.23,0,0,0,.24.56,1.56,1.56,0,0,0,.54.42,4.79,4.79,0,0,0,.95.33l4.05,1q.78.19,1.38.4a5,5,0,0,1,1.05.49,3.36,3.36,0,0,1,.77.66,3,3,0,0,1,.52.9,5.7,5.7,0,0,1,.28,1.23,13.32,13.32,0,0,1,.09,1.63,9.14,9.14,0,0,1-.29,2.47,3.22,3.22,0,0,1-1.1,1.68,5.29,5.29,0,0,1-2.22,1,17.57,17.57,0,0,1-3.65.31,25.65,25.65,0,0,1-2.88-.13,17.47,17.47,0,0,1-1.86-.3,5.9,5.9,0,0,1-1.3-.43Z" transform="translate(0 -0.5)"/><polygon class="cls-3" points="40 131.02 106.62 198.54 106.62 175.88 40 131.02"/><polygon class="cls-4" points="106.62 175.88 106.62 198.54 153.3 150.96 106.62 175.88"/><polygon class="cls-4" points="106.5 169.33 46.74 130.96 106.31 172.47 150.11 149.4 106.5 169.33"/><polygon class="cls-3" points="107.62 163.76 60.7 135.4 107.49 166.13 141.28 149.93 107.62 163.76"/></svg>