<svg id="Layer_1" data-name="Layer 1" xmlns="http://www.w3.org/2000/svg" viewBox="0 0 204.22 38.58"><defs><style>.cls-1{fill:#fff;}</style></defs><title>ladusneg</title><path class="cls-1" d="M322.67,282.83h-3.83v.6s3.43.92,3.83,3.43v30.32c-.4,2.5-3.83,3.43-3.83,3.43v.6h7.66V282.83Z" transform="translate(-318.84 -282.64)"/><path class="cls-1" d="M410.71,282.83h-3.83v.6s3.43.92,3.83,3.43v30.32c-.4,2.5-3.83,3.43-3.83,3.43v.6h7.66V282.83Z" transform="translate(-318.84 -282.64)"/><path class="cls-1" d="M481.18,282.83H485v.6s-3.43.92-3.83,3.43v30.32c.4,2.5,3.83,3.43,3.83,3.43v.6h-7.66V282.83Z" transform="translate(-318.84 -282.64)"/><path class="cls-1" d="M349.41,313.55s-.92,3.43-3.43,3.83H328.53v3.83H350v-7.66Z" transform="translate(-318.84 -282.64)"/><path class="cls-1" d="M393.81,316.87l-16.07-33.93H373.5l18.12,38.26h7.66v-.6S394.71,319.3,393.81,316.87Z" transform="translate(-318.84 -282.64)"/><path class="cls-1" d="M368.92,305.67h14l-1.36-2.77H370.32l5.41-10.71-1.53-2.83-13.89,27.52c-.91,2.43-5.31,3.74-5.31,3.74v.6h6.08Z" transform="translate(-318.84 -282.64)"/><path class="cls-1" d="M425.22,282.79h-7.7v3.29h6.9A13.93,13.93,0,0,1,438.35,300v4.16a13.93,13.93,0,0,1-13.93,13.93h-6.9v3.11h7.7A16.18,16.18,0,0,0,441.4,305V299A16.18,16.18,0,0,0,425.22,282.79Z" transform="translate(-318.84 -282.64)"/><path class="cls-1" d="M461,318.38c-5.87-.69-6.53-7-6.53-7V285.13l0-1.89v-.6h-6.07v.6a3.85,3.85,0,0,1,3,3.42v24.71s.42,8.7,8.81,9.7a24.66,24.66,0,0,0,15-3.36v-3.37C471.6,317.68,465.88,318.95,461,318.38Z" transform="translate(-318.84 -282.64)"/><path class="cls-1" d="M521.56,305c-4.21-8.5-20.55-5.86-20.85-13.11-.36-9,15.92-5.48,15.92-5.48,2.95,1.14,3.74,5.48,3.74,5.48h.6v-7.66s-23-6.05-23.2,7.45,29.54,4.16,22,25.85C519.74,317.49,525.77,313.46,521.56,305Z" transform="translate(-318.84 -282.64)"/><path class="cls-1" d="M515.86,305.48s7.8,18-15.91,11.63c-2.43-.9-3.74-5.48-3.74-5.48h-.6v7.66s16,5,21.12-1.07S517.92,307.4,515.86,305.48Z" transform="translate(-318.84 -282.64)"/></svg>